<?xml version="1.0" encoding="utf-8"?>
<!-- Generator: Adobe Illustrator 24.0.1, SVG Export Plug-In . SVG Version: 6.00 Build 0)  -->
<svg version="1.1" id="Capa_1" xmlns="http://www.w3.org/2000/svg" xmlns:xlink="http://www.w3.org/1999/xlink" x="0px" y="0px"
	 viewBox="0 0 1200 1200" style="enable-background:new 0 0 1200 1200;" xml:space="preserve">
<style type="text/css">
	.st0{fill:#FFFFFF;}
	.st1{font-family:'MyriadPro-Regular';}
	.st2{font-size:266.4838px;}
	.st3{font-size:494.3086px;}
	.st4{font-size:111.1872px;}
</style>
<g>
	<path class="st0" d="M122,1149.5c-27.29,0-49.5-22.21-49.5-49.5V122c0-27.29,22.21-49.5,49.5-49.5s49.5,22.21,49.5,49.5v978
		C171.5,1127.29,149.29,1149.5,122,1149.5z"/>
	<path d="M122,73c27.02,0,49,21.98,49,49v978c0,27.02-21.98,49-49,49s-49-21.98-49-49V122C73,94.98,94.98,73,122,73 M122,72
		c-27.61,0-50,22.39-50,50v978c0,27.61,22.39,50,50,50s50-22.39,50-50V122C172,94.39,149.61,72,122,72L122,72z"/>
</g>
<text transform="matrix(1 0 0 1 249.2656 271.3789)" class="st1 st2">GRADE</text>
<text transform="matrix(1 0 0 1 506.25 717.4238)" class="st1 st3">0</text>
<text transform="matrix(1 0 0 1 366.6494 936.2031)" class="st1 st4">NO WAVES</text>
</svg>
