<?xml version="1.0" encoding="utf-8"?>
<!-- Generator: Adobe Illustrator 24.0.1, SVG Export Plug-In . SVG Version: 6.00 Build 0)  -->
<svg version="1.1" id="Capa_1" xmlns="http://www.w3.org/2000/svg" xmlns:xlink="http://www.w3.org/1999/xlink" x="0px" y="0px"
	 viewBox="0 0 1200 1200" style="enable-background:new 0 0 1200 1200;" xml:space="preserve">
<style type="text/css">
	.st0{fill:#E6E6E6;}
	.st1{fill:#F2F2F2;}
	.st2{fill:#FFFFFF;}
	.st3{fill:none;}
</style>
<g>
	<path class="st0" d="M596,1115.1c-78.9,0-143.3-28.8-153.4-41c-1-1.2-1.5-2.3-1.3-3c0.3-1.6,3.7-2.4,10.9-2.4
		c5.6,0,13.6,0.4,23.8,1c19.4,1,48.6,2.5,88.5,2.5c9.9,0,20.2-0.1,30.4-0.3c47.2-0.9,82.7-3.4,108.6-5.3c15.8-1.1,27.2-2,35.1-2
		c8,0,12,0.9,12.5,2.9c0.2,0.8-0.1,1.8-1,2.9c-7.7,10.9-58.3,35.4-118.1,42.6C620.3,1114.4,608.2,1115.1,596,1115.1z"/>
	<path class="st1" d="M738.5,1064.2v1c7.5,0,11.6,0.8,12,2.5c0.1,0.6-0.2,1.5-0.9,2.5c-4.2,5.9-19.9,14.9-40,22.8
		c-24.3,9.5-51.9,16.5-77.7,19.6c-11.7,1.4-23.7,2.1-35.9,2.1c-43.1,0-79.2-8.6-101.9-15.8c-28.4-9-46.4-19.3-51.1-25
		c-1.2-1.5-1.3-2.3-1.2-2.6c0.4-2,8-2,10.4-2c5.6,0,13.6,0.4,23.7,1c19.4,1,48.7,2.5,88.5,2.5c9.9,0,20.2-0.1,30.4-0.3
		c47.2-0.9,82.7-3.4,108.6-5.3c15.8-1.1,27.1-2,35-2v-1 M738.5,1064.2c-21,0-67.8,5.9-143.7,7.3c-10.8,0.2-20.9,0.3-30.4,0.3
		c-60.5,0-95.8-3.5-112.2-3.5c-7.4,0-11,0.7-11.4,2.8c-1.9,9.7,69.1,44.6,155.2,44.6c11.8,0,23.8-0.7,36-2.1
		c64.5-7.7,121.7-36.7,119.5-46.1C750.9,1065,746.7,1064.2,738.5,1064.2L738.5,1064.2z"/>
</g>
<g>
	<path class="st1" d="M590.4,1093.1c-3.3,0-6.7,0-10-0.1c-51.8-0.8-103.5-8.3-153.5-22.3c-26.9-66.3-49.2-135.1-66.3-204.5
		c-16.8-67.9-28.9-137.6-36-207.1c87.4,18.2,177,27.4,266.2,27.4c4.7,0,9.5,0,14.2-0.1c90.8-1,181.8-11.5,270.4-31.3
		c-9.5,71-24.1,142.1-43.3,211.1c-19.2,68.9-43.3,137.1-71.8,202.7C705,1085,647.9,1093.1,590.4,1093.1z"/>
	<path class="st1" d="M874.8,655.8c-9.5,70.8-24.1,141.5-43.2,210.3c-19.1,68.8-43.3,136.9-71.7,202.5
		c-55.2,16-112.2,24.1-169.5,24.1c-3.3,0-6.7,0-10-0.1c-51.7-0.8-103.2-8.3-153.1-22.2c-26.8-66.2-49.1-134.9-66.2-204.2
		c-16.7-67.6-28.8-137.1-35.9-206.4c87.2,18.1,176.6,27.3,265.6,27.3c4.7,0,9.5,0,14.2-0.1C695.6,686,786.4,675.5,874.8,655.8
		 M876,654.5c-72.4,16.2-164.3,30.3-271,31.5c-4.8,0-9.5,0.1-14.2,0.1c-105,0-195.5-12.7-266.8-27.6c6.3,61.3,17.2,131.5,36.1,207.9
		c19.3,78.1,42.9,146.7,66.5,204.8c38.8,10.8,91.3,21.3,153.9,22.4c3.4,0.1,6.7,0.1,10,0.1c70.7,0,129.2-12.3,170.2-24.2
		c25.1-57.8,50.4-125.8,71.9-203C854.2,788.8,867.6,717.2,876,654.5L876,654.5z"/>
</g>
<g id="Led">
	<path class="st0" d="M585.1,691.9c-233.6,0-266.9-35.9-277.8-47.7c-49.4-53.3-46-127.7-44.6-159.5c0.1-1.8,0.1-3.4,0.2-4.9
		c2.9-75.6,37.8-157.9,93.3-220c30.5-34.1,65.8-61,104.9-79.9c43.1-20.8,89.9-31.4,139-31.4c49.5,0,96.5,10.9,139.8,32.3
		c38.9,19.3,74,46.7,104.4,81.5c27.4,31.3,50.4,68.5,66.7,107.4c15.4,37,24.5,75.1,26.4,110.1c0.6,11.4,2,38.2-3.8,69.2
		c-7.2,38.6-22.9,70.4-46.6,94.5c-9.7,9.8-23.2,21-61.3,30.3c-44.1,10.7-111.8,16.6-206.9,17.8C607.3,691.9,596,691.9,585.1,691.9z"
		/>
	<path class="st2" d="M600.2,149c49.4,0,96.4,10.9,139.5,32.3c38.8,19.3,73.9,46.6,104.3,81.4c27.3,31.3,50.3,68.4,66.6,107.3
		c15.4,37,24.5,75,26.3,109.9c0.6,11.4,2,38.2-3.7,69.1c-7.2,38.5-22.8,70.3-46.5,94.3c-9.6,9.7-23.1,20.9-61.1,30.2
		c-44,10.7-111.7,16.5-206.8,17.8c-11.5,0.2-22.8,0.2-33.7,0.2c-98.1,0-172-6.3-219.8-18.7c-40.8-10.6-52.6-23.4-57.6-28.8
		c-21.1-22.8-35-52.3-41.2-87.8c-5.1-29.3-4-55.6-3.3-71.4c0.1-1.8,0.1-3.4,0.2-4.9c2.9-75.5,37.7-157.6,93.1-219.7
		c30.4-34.1,65.7-60.9,104.8-79.8C504.4,159.5,551.1,149,600.2,149 M600.2,148c-206.8,0-332.1,186.7-337.7,331.8
		c-1.1,27.5-7.8,108.3,44.5,164.8c12.8,13.8,49.5,47.9,278.2,47.9c10.8,0,22-0.1,33.7-0.2c213.3-2.9,249.1-28.6,268.6-48.3
		c56.1-56.9,51.7-141.2,50.5-164.1C930.7,341.4,809.3,148,600.2,148L600.2,148z"/>
</g>
<g id="Reflection">
	<path class="st2" d="M352.7,500c-1.1,0-2.7-1.2-4.5-3.3c-8.6-10.5-22.2-47.1-14.8-84.1c8.7-43.3,42.7-74.1,51.5-74.1
		c0.5,0,0.8,0.1,1.1,0.3c2.1,1.2-0.2,7.8-4,18.6c-4.7,13.3-11.8,33.4-17.6,62c-5.6,27.6-7,48.3-7.9,62c-0.8,11.4-1.2,18.4-3.7,18.7
		C352.9,500,352.8,500,352.7,500L352.7,500z"/>
	<path class="st2" d="M385,339c0.4,0,0.7,0.1,0.9,0.2c1.8,1-0.8,8.1-4.2,18c-4.7,13.3-11.8,33.4-17.6,62.1c-5.6,27.7-7,48.3-7.9,62
		c-0.7,10.4-1.2,17.9-3.2,18.2h-0.1c-0.5,0-1.8-0.3-4.1-3.1c-3.9-4.7-9.7-16-13.5-32.3c-2.8-12.2-5.3-31-1.2-51.5
		c5-24.7,18.1-43.7,25.5-52.9C370,346.8,380.8,339,385,339 M385,338c-9.4,0-43.4,31.7-52,74.5c-8.9,44.2,11.8,88,19.7,88
		c0.1,0,0.2,0,0.3,0c6-0.8,1.3-28.4,12-81c11-53.9,26.6-78.1,21.4-81.1C386,338.1,385.5,338,385,338L385,338z"/>
</g>
<g id="Light">
	<path class="st3" d="M580.4,741.2c-306.3,0-350-47.1-364.3-62.6c-64.8-69.9-60.3-167.5-58.5-209.2c0.1-2.4,0.1-4.5,0.3-6.4
		c3.8-99.1,49.6-207.1,122.4-288.5c40-44.7,86.3-80,137.6-104.8c56.5-27.3,117.9-41.2,182.3-41.2c64.9,0,126.6,14.3,183.3,42.4
		c51,25.3,97,61.2,136.9,106.9c35.9,41,66.1,89.8,87.5,140.8c20.2,48.5,32.1,98.5,34.6,144.4c0.8,15,2.6,50.1-5,90.7
		c-9.4,50.6-30,92.3-61.1,123.9c-12.7,12.9-30.4,27.5-80.4,39.7c-57.8,14-146.6,21.8-271.3,23.3
		C609.5,741.2,594.7,741.2,580.4,741.2z"/>
	<path class="st3" d="M600.2,29.2c64.8,0,126.4,14.3,182.9,42.4c50.9,25.3,96.9,61.1,136.8,106.7c35.8,41,66,89.7,87.3,140.7
		c20.2,48.5,32.1,98.4,34.5,144.1c0.8,15,2.6,50.1-4.9,90.6c-9.4,50.5-29.9,92.2-61,123.7c-12.6,12.7-30.3,27.4-80.1,39.6
		c-57.7,14-146.5,21.6-271.2,23.3c-15.1,0.3-29.9,0.3-44.2,0.3c-128.6,0-225.6-8.3-288.2-24.5c-53.5-13.9-69-30.7-75.5-37.8
		c-27.7-29.9-45.9-68.6-54-115.1c-6.7-38.4-5.2-72.9-4.3-93.6c0.1-2.4,0.1-4.5,0.3-6.4c3.8-99,49.4-206.7,122.1-288.1
		c39.9-44.7,86.2-79.9,137.4-104.7C474.6,43,535.8,29.2,600.2,29.2 M600.2,27.9C329,27.9,164.7,272.7,157.4,463
		c-1.4,36.1-10.2,142,58.4,216.1c16.8,18.1,64.9,62.8,364.8,62.8c14.2,0,28.9-0.1,44.2-0.3c279.7-3.8,326.7-37.5,352.2-63.3
		c73.6-74.6,67.8-185.2,66.2-215.2C1033.6,281.5,874.4,27.9,600.2,27.9L600.2,27.9z"/>
</g>
</svg>
