<?xml version="1.0" encoding="utf-8"?>
<!-- Generator: Adobe Illustrator 24.0.1, SVG Export Plug-In . SVG Version: 6.00 Build 0)  -->
<svg version="1.1" id="Capa_1" xmlns="http://www.w3.org/2000/svg" xmlns:xlink="http://www.w3.org/1999/xlink" x="0px" y="0px"
	 viewBox="0 0 750 1080" style="enable-background:new 0 0 750 1080;" xml:space="preserve">
<style type="text/css">
	.st0{fill:#FF0303;}
	.st1{fill:#FF0000;}
	.st2{font-family:'ArialMT';}
	.st3{font-size:71.573px;}
	.st4{font-size:69.83px;}
</style>
<g id="Base">
	<ellipse class="st0" cx="384.3" cy="949" rx="80.9" ry="55"/>
</g>
<g id="Top">
	<ellipse class="st0" cx="384.3" cy="220.8" rx="64.2" ry="37.8"/>
</g>
<g id="Level">
	<rect x="320.1" y="217.8" class="st1" width="128.5" height="703.8"/>
</g>
<rect x="448.5" y="829.5" width="101.2" height="7.6"/>
<rect x="448.5" y="754.3" width="101.2" height="7.6"/>
<rect x="448.5" y="679.1" width="101.2" height="7.6"/>
<rect x="448.5" y="603.8" width="101.2" height="7.6"/>
<rect x="448.5" y="527" width="101.2" height="7.6"/>
<rect x="448.5" y="448.8" width="101.2" height="7.6"/>
<rect x="448.5" y="375" width="101.2" height="7.6"/>
<rect x="448.5" y="299.8" width="101.2" height="7.6"/>
<rect x="448.5" y="223.1" width="101.2" height="7.6"/>
<rect x="448.5" y="260.7" width="50.6" height="7.6"/>
<rect x="448.5" y="337.4" width="50.6" height="7.6"/>
<rect x="448.5" y="411.2" width="50.6" height="7.6"/>
<rect x="448.5" y="486.4" width="50.6" height="7.6"/>
<rect x="448.5" y="641.5" width="50.6" height="7.6"/>
<rect x="448.5" y="564.6" width="50.6" height="7.6"/>
<rect x="448.5" y="716.7" width="50.6" height="7.6"/>
<rect x="448.5" y="792" width="50.6" height="7.6"/>
<rect x="218.3" y="827.8" width="101.2" height="8.6"/>
<rect x="218.3" y="741.8" width="101.2" height="8.6"/>
<rect x="218.3" y="655.8" width="101.2" height="8.6"/>
<rect x="218.3" y="569.8" width="101.2" height="8.6"/>
<rect x="218.3" y="482.1" width="101.2" height="8.5"/>
<rect x="218.3" y="396.1" width="101.2" height="8.5"/>
<rect x="218.3" y="311.8" width="101.2" height="8.5"/>
<rect x="218.3" y="225.8" width="101.2" height="8.5"/>
<rect x="243.1" y="268.9" width="75.9" height="8.5"/>
<rect x="243.1" y="353.2" width="75.9" height="8.5"/>
<rect x="243.1" y="439.1" width="75.9" height="8.5"/>
<rect x="243.1" y="612.8" width="75.9" height="8.6"/>
<rect x="243.1" y="525.1" width="75.9" height="8.6"/>
<rect x="243.1" y="698.8" width="75.9" height="8.6"/>
<rect x="243.1" y="784.8" width="75.9" height="8.6"/>
<rect x="268.3" y="245.6" width="50.6" height="8.6"/>
<rect x="268.3" y="332.1" width="50.6" height="8.5"/>
<rect x="268.3" y="416.9" width="50.6" height="8.5"/>
<rect x="268.3" y="589.5" width="50.6" height="8.6"/>
<rect x="268.3" y="501.8" width="50.6" height="8.5"/>
<rect x="268.3" y="675.5" width="50.6" height="8.6"/>
<rect x="268.3" y="761.5" width="50.6" height="8.6"/>
<rect x="268.3" y="290" width="50.6" height="8.5"/>
<rect x="268.3" y="375.3" width="50.6" height="8.5"/>
<rect x="268.3" y="460.1" width="50.6" height="8.5"/>
<rect x="268.3" y="633.8" width="50.6" height="8.6"/>
<rect x="268.3" y="546.1" width="50.6" height="8.6"/>
<rect x="268.3" y="719.8" width="50.6" height="8.6"/>
<rect x="268.3" y="805.8" width="50.6" height="8.6"/>
<text transform="matrix(1.0177 0 0 1 661.4737 200.2482)" class="st2 st3">C</text>
<text transform="matrix(1.0177 0 0 1 57.7369 200.2482)" class="st2 st3">F</text>
<text transform="matrix(1.0177 0 0 1 34.0738 165.7584)" class="st2 st3">ยบ</text>
<text transform="matrix(1.0177 0 0 1 646.2989 165.7579)" class="st2 st3">ยบ</text>
<text transform="matrix(1.0431 0 0 1 557.7835 246.3418)" class="st2 st4">50</text>
<text transform="matrix(1.0431 0 0 1 557.7835 323.2334)" class="st2 st4">40</text>
<text transform="matrix(1.0431 0 0 1 557.7835 401.2529)" class="st2 st4">30</text>
<text transform="matrix(1.0431 0 0 1 557.7835 476.812)" class="st2 st4">20</text>
<text transform="matrix(1.0431 0 0 1 557.7835 554.8096)" class="st2 st4">10</text>
<text transform="matrix(1.0431 0 0 1 557.7835 631.9902)" class="st2 st4">0</text>
<text transform="matrix(1.0431 0 0 1 557.7835 701.4775)" class="st2 st4">-10</text>
<text transform="matrix(1.0431 0 0 1 557.7835 775.6211)" class="st2 st4">-20</text>
<text transform="matrix(1.0431 0 0 1 557.7835 852.2402)" class="st2 st4">-30</text>
<text transform="matrix(1.0177 0 0 1 104.1841 850.3219)" class="st2 st3">-20</text>
<text transform="matrix(1.0177 0 0 1 168.9473 765.0309)" class="st2 st3">0</text>
<text transform="matrix(1.0177 0 0 1 128.439 417.6676)" class="st2 st3">80</text>
<text transform="matrix(1.0177 0 0 1 129.4507 504.5284)" class="st2 st3">60</text>
<text transform="matrix(1.0177 0 0 1 128.439 593.2272)" class="st2 st3">40</text>
<text transform="matrix(1.0177 0 0 1 128.439 678.8795)" class="st2 st3">20</text>
<text transform="matrix(1.0177 0 0 1 94.1299 248.9098)" class="st2 st3">120</text>
<text transform="matrix(1.0177 0 0 1 94.1299 335.295)" class="st2 st3">100</text>
<text id="Value" transform="matrix(0.9783 0 0 1 303.8675 159.9553)" class="st2 st3">-20</text>
<text id="Type" transform="matrix(0.9783 0 0 1 407.9185 159.9552)" class="st2 st3">C</text>
<text transform="matrix(0.9783 0 0 1 393.3316 125.4655)" class="st2 st3">ยบ</text>
</svg>
