<?xml version="1.0" encoding="utf-8"?>
<!-- Generator: Adobe Illustrator 24.0.1, SVG Export Plug-In . SVG Version: 6.00 Build 0)  -->
<svg version="1.1" id="Capa_1" xmlns="http://www.w3.org/2000/svg" xmlns:xlink="http://www.w3.org/1999/xlink" x="0px" y="0px"
	 viewBox="0 0 1920 1080" style="enable-background:new 0 0 1920 1080;" xml:space="preserve">
<style type="text/css">
	.st2{fill:#FFFFFF;}
	.st3{font-family:'ArialMT';}
	.st4{font-size:450px;}
</style>
<g id="Color">
	<defs>
		<linearGradient id="mercurio" x1="0" y1="0" x2="100%" y2="0">
			<stop id="stop1" offset="0%" stop-color="blue" />
			<stop id="stop2" offset="100%" stop-color="red" style="stop-opacity:1" />
		</linearGradient>
	</defs>
	<path class="st0" fill="url(#mercurio)" d="M960.5,988.5H62C62,495.6,467.6,90,960.5,90S1859,495.6,1859,988.5H960.5z"/>
</g>
<g id="Off">
	<defs>
		<linearGradient id="off" x1="0" y1="0" x2="100%" y2="0">
			<stop id="stop3" offset="0%" stop-color="white" style="stop-opacity:0">

			</stop>
			<stop id="stop4" offset="0%" stop-color="white" style="stop-opacity:1">
				
			</stop>
		</linearGradient>
	</defs>
	<path class="st1" fill="url(#off)" d="M959.6,988.5H61.1C61.1,495.6,466.7,90,959.6,90s898.5,405.6,898.5,898.5H959.6z"/>
</g>
<g>
	<path class="st2" d="M960.5,989h-599c0-328.6,270.4-599,599-599s599,270.4,599,599H960.5z"/>
</g>
<g id="text_container">
	<text id="Value" transform="matrix(1.0653 0 0 1 509.6919 931.001)" class="st3 st4">
		{{value}}
	</text>
</g>
<g>
	<path d="M960.5,91c60.5,0,121,6.2,179.9,18.4c57.4,11.9,113.9,29.6,168,52.6c53.1,22.6,104.4,50.6,152.4,83.2
		c47.6,32.2,92.3,69.2,133,110c40.7,40.7,77.7,85.5,110,133c32.6,48,60.5,99.3,83.2,152.4c23.1,54.1,40.8,110.6,52.6,168
		c12.1,58.6,18.3,118.8,18.4,178.9H960.5H63c0.1-60.1,6.3-120.3,18.4-178.9c11.9-57.4,29.6-113.9,52.6-168
		c22.6-53.1,50.6-104.4,83.2-152.4c32.2-47.6,69.2-92.3,110-133s85.5-77.7,133-110c48-32.6,99.3-60.5,152.4-83.2
		c54.1-23.1,110.6-40.8,168-52.6C839.5,97.2,900,91,960.5,91 M960.5,90C467.6,90,62,495.6,62,988.5h898.5H1859
		C1859,495.6,1453.4,90,960.5,90L960.5,90z"/>
</g>
<g>
	<path d="M960.1,391.7c80.2,0,158.2,15.9,231.8,47.3c35.4,15.1,69.5,33.7,101.5,55.4c31.7,21.5,61.5,46.1,88.7,73.3
		c27.1,27.1,51.8,57,73.3,88.7c21.7,32,40.3,66.2,55.4,101.5c31.3,73.4,47.2,151,47.3,230.8h-598h-598c0.1-79.8,16-157.5,47.3-230.8
		c15.1-35.4,33.7-69.5,55.4-101.5c21.5-31.7,46.1-61.5,73.3-88.7c27.1-27.1,57-51.8,88.7-73.3c32-21.7,66.2-40.3,101.5-55.4
		C802,407.7,880,391.7,960.1,391.7 M960.1,390.7c-328.6,0-599,270.4-599,599h599h599C1559.1,661.1,1288.7,390.7,960.1,390.7
		L960.1,390.7z"/>
</g>
<text id="Type" transform="matrix(1 0 0 1 1116.8193 940.6804)" class="st3 st4">{{type}}</text>
<text transform="matrix(1 0 0 1 1027.1699 776.2529)" class="st3 st4">ยบ</text>
<rect x="362.1" y="986.5" class="st2" width="1196" height="42.8"/>
</svg>
