<?xml version="1.0" encoding="utf-8"?>
<!-- Generator: Adobe Illustrator 24.0.1, SVG Export Plug-In . SVG Version: 6.00 Build 0)  -->
<svg version="1.1" id="Capa_1" xmlns="http://www.w3.org/2000/svg" xmlns:xlink="http://www.w3.org/1999/xlink" x="0px" y="0px"
	 viewBox="0 0 1200 1200" style="enable-background:new 0 0 1200 1200;" xml:space="preserve">
<style type="text/css">
	.st0{fill:#FFFFFF;}
	.st1{font-family:'MyriadPro-Regular';}
	.st2{font-size:310.9683px;}
</style>
<g id="Path">
	<path class="st0" d="M600,1139.5c-72.8,0-143.5-14.3-210-42.4c-64.2-27.2-121.9-66.1-171.5-115.6C169,931.9,130.1,874.2,102.9,810
		c-28.1-66.5-42.4-137.2-42.4-210s14.3-143.5,42.4-210c27.2-64.2,66.1-121.9,115.6-171.5C268.1,169,325.8,130.1,390,102.9
		c66.5-28.1,137.2-42.4,210-42.4s143.5,14.3,210,42.4c64.2,27.2,121.9,66.1,171.5,115.6c49.6,49.6,88.4,107.2,115.6,171.5
		c28.1,66.5,42.4,137.2,42.4,210s-14.3,143.5-42.4,210c-27.2,64.2-66.1,121.9-115.6,171.5c-49.5,49.6-107.3,88.4-171.5,115.6
		C743.5,1125.2,672.8,1139.5,600,1139.5z"/>
	<path d="M600,61c72.8,0,143.3,14.3,209.8,42.4c31.9,13.5,62.7,30.2,91.6,49.7c28.5,19.3,55.4,41.4,79.8,65.8s46.5,51.2,65.8,79.8
		c19.5,28.8,36.2,59.6,49.7,91.6c28.1,66.4,42.3,137,42.3,209.8s-14.3,143.3-42.4,209.8c-13.5,31.9-30.2,62.7-49.7,91.6
		c-19.3,28.5-41.4,55.4-65.8,79.8s-51.2,46.5-79.8,65.8c-28.8,19.5-59.6,36.2-91.6,49.7c-66.4,28.1-137,42.3-209.8,42.3
		s-143.4-14.3-209.8-42.4c-31.9-13.5-62.7-30.2-91.6-49.7c-28.5-19.3-55.4-41.4-79.8-65.8s-46.5-51.2-65.8-79.8
		c-19.5-28.8-36.2-59.6-49.7-91.6C75.3,743.3,61,672.8,61,600s14.3-143.4,42.4-209.8c13.5-31.9,30.2-62.7,49.7-91.6
		c19.3-28.5,41.4-55.4,65.8-79.8s51.2-46.5,79.8-65.8c28.8-19.5,59.6-36.2,91.6-49.7C456.6,75.3,527.2,61,600,61 M600,60
		C301.8,60,60,301.8,60,600s241.8,540,540,540s540-241.8,540-540S898.2,60,600,60L600,60z"/>
</g>
<g id="Fill">
	<path class="st0" d="M599.7,1139.7c-72.8,0-143.5-14.3-210-42.4c-64.2-27.2-121.9-66.1-171.5-115.6
		c-49.6-49.5-88.4-107.2-115.6-171.5c-28.1-66.5-42.4-137.2-42.4-210s14.3-143.5,42.4-210c27.2-64.2,66.1-121.9,115.6-171.5
		S325.5,130.2,389.7,103c66.5-28.1,137.2-42.4,210-42.4s143.5,14.3,210,42.4c64.2,27.2,121.9,66.1,171.5,115.6
		c49.6,49.6,88.4,107.2,115.6,171.5c28.1,66.5,42.4,137.2,42.4,210s-14.3,143.5-42.4,210c-27.2,64.2-66.1,121.9-115.6,171.5
		c-49.5,49.6-107.2,88.5-171.5,115.6C743.2,1125.4,672.5,1139.7,599.7,1139.7z"/>
	<path d="M599.7,61.2c72.8,0,143.3,14.3,209.8,42.4c31.9,13.5,62.7,30.2,91.6,49.7c28.5,19.3,55.4,41.4,79.8,65.8
		s46.5,51.2,65.8,79.8c19.5,28.8,36.2,59.6,49.7,91.6c28.1,66.4,42.4,137,42.4,209.8s-14.3,143.4-42.4,209.8
		c-13.5,31.9-30.2,62.7-49.7,91.6c-19.3,28.5-41.4,55.4-65.8,79.8s-51.2,46.5-79.8,65.8c-28.8,19.5-59.6,36.2-91.6,49.7
		c-66.5,28.1-137,42.4-209.8,42.4s-143.4-14.3-209.8-42.4c-31.9-13.5-62.7-30.2-91.6-49.7c-28.5-19.3-55.4-41.4-79.8-65.8
		s-46.5-51.2-65.8-79.8c-19.5-28.8-36.2-59.6-49.7-91.6c-28.1-66.5-42.3-137-42.3-209.8c0-72.8,14.3-143.4,42.4-209.8
		c13.5-31.9,30.2-62.7,49.7-91.6c19.3-28.5,41.4-55.4,65.8-79.8s51.2-46.5,79.8-65.8c28.8-19.5,59.6-36.2,91.6-49.7
		C456.4,75.4,527,61.2,599.7,61.2 M599.7,60.2c-298.2,0-540,241.8-540,540s241.8,540,540,540s540-241.8,540-540S898,60.2,599.7,60.2
		L599.7,60.2z"/>
</g>
<text transform="matrix(1.2122 0 0 1 644.4302 702.3208)" class="st1 st2">%</text>
<text transform="matrix(1.2122 0 0 1 249.3019 702.3211)" class="st1 st2">00</text>
</svg>
