<?xml version="1.0" encoding="utf-8"?>
<!-- Generator: Adobe Illustrator 24.0.1, SVG Export Plug-In . SVG Version: 6.00 Build 0)  -->
<svg version="1.1" id="Capa_1" xmlns="http://www.w3.org/2000/svg" xmlns:xlink="http://www.w3.org/1999/xlink" x="0px" y="0px"
	 viewBox="0 0 1200 1200" style="enable-background:new 0 0 1200 1200;" xml:space="preserve">
<style type="text/css">
	/*.st0{fill:none;}*/
	.st1{fill:#FFFFFF;stroke:#000000;stroke-miterlimit:10;}
	.st2{fill:none;stroke:#CCCCCC;stroke-width:10;stroke-miterlimit:10;}
	.st3{fill:#333333;}
	.st4{fill:none;stroke:#CCCCCC;stroke-miterlimit:10;}
	.st5{fill:none;stroke:#CCCCCC;stroke-width:14;stroke-miterlimit:10;}
	.st6{fill:none;stroke:#333333;stroke-width:10;stroke-miterlimit:10;}
</style>
<defs>
	<radialGradient id="state" cx="50%" cy="50%" r="50%">
		<stop stop-color="white" offset="0%"/>
		<stop offset="30%" stop-color="yellow"/>
		<stop stop-color="white" offset="100%"/>
	</radialGradient>
</defs>
<circle id="Light" fill="url(#state)" class="st0" class="st0" cx="600" cy="554.9" r="525.9"/>
<path class="st1" d="M1025.7,403.5"/>
<path class="st2" d="M420.8,701.8C332.6,646,274.4,549.6,274.4,440.1c0-172.7,144.8-312.7,323.4-312.7s323.4,140,323.4,312.7
	c0,83-33.4,158.4-87.9,214.4c-17.3,17.7-36.6,33.5-57.7,46.9"/>
<rect x="456.9" y="1011.5" class="st3" width="287" height="31.9"/>
<rect x="456.9" y="1075.3" class="st3" width="287" height="30.1"/>
<path class="st3" d="M713.8,1171c-76.2,0-152.4,0-228.6,0c-9.4-11.2-18.9-22.4-28.4-33.7h287C733.9,1148.5,723.9,1159.7,713.8,1171z
	"/>
<path class="st4" d="M765,701.4"/>
<path class="st5" d="M337.5,367.8"/>
<path class="st5" d="M336.7,390.6c-5.3,29.4-3.7,53.2-2.3,65.5"/>
<path class="st5" d="M336.7,390.6"/>
<path class="st5" d="M442.4,236.6c-17.4,10.6-58.2,38.6-85.2,92.4c-6.7,13.3-11.6,26.4-15.2,38.8"/>
<line class="st6" x1="597.7" y1="988.4" x2="450.5" y2="610.7"/>
<line class="st6" x1="605" y1="988.4" x2="719.3" y2="610.7"/>
<path class="st2" d="M777.2,698.7c-17.8,39.1-40,101.8-41.4,180.7c-0.8,41.4,4.4,77.5,10.8,106.3c-97.3,0-194.5,0-291.8,0
	c5.3-29.5,9-65.5,7.2-106.3c-3.3-77.9-24.9-140.1-43.2-180.7"/>
<path id="Resistance" class="st6" d="M466,650.9c0,0,29.5-82.5,58.1,0c28,80.8,50.3-134.5,112.2,0c35.8,77.8,46.5-93.5,71.1,0"/>
</svg>
