<?xml version="1.0" encoding="utf-8"?>
<!-- Generator: Adobe Illustrator 24.0.1, SVG Export Plug-In . SVG Version: 6.00 Build 0)  -->
<svg version="1.1" id="Capa_1" xmlns="http://www.w3.org/2000/svg" xmlns:xlink="http://www.w3.org/1999/xlink" x="0px" y="0px"
	 viewBox="0 0 1200 1200" style="enable-background:new 0 0 1200 1200;" xml:space="preserve">
<style type="text/css">
	.st0{fill:#22B573;}
	.st1{fill:#FFFFFF;}
	.st2{font-family:'MyriadPro-Regular';}
	.st3{font-size:200px;}
	.st4{fill:none;}
	.st5{font-size:150px;}
</style>
<g id="State_1_">
	<path class="st0" d="M1124.5,983H84.5c-16.57,0-30-13.43-30-30V413c0-16.57,13.43-30,30-30h1040c16.57,0,30,13.43,30,30v540
		C1154.5,969.57,1141.07,983,1124.5,983z"/>
</g>
<g id="Info">
	<path class="st1" d="M1074,931H134c-16.57,0-30-13.43-30-30V461c0-16.57,13.43-30,30-30h940c16.57,0,30,13.43,30,30v440
		C1104,917.57,1090.57,931,1074,931z"/>
</g>
<text transform="matrix(1 0 0 1 561.1577 730.2104)" class="st0 st2 st3">/</text>
<text id="Current" transform="matrix(1 0 0 1 155.8882 729.7241)" class="st0 st2 st3">5009</text>
<text id="Limit" transform="matrix(1 0 0 1 630.6989 729.8966)" class="st0 st2 st3">5009</text>
<rect x="382.62" y="476.41" class="st4" width="473.34" height="137.87"/>
<text transform="matrix(1 0 0 1 300.5332 336.9619)" class="st2 st5">CAPACITY</text>
</svg>
