<?xml version="1.0" encoding="utf-8"?>
<!-- Generator: Adobe Illustrator 24.0.1, SVG Export Plug-In . SVG Version: 6.00 Build 0)  -->
<svg version="1.1" id="Capa_1" xmlns="http://www.w3.org/2000/svg" xmlns:xlink="http://www.w3.org/1999/xlink" x="0px" y="0px"
	 viewBox="0 0 1920 1080" style="enable-background:new 0 0 1920 1080;" xml:space="preserve">
<style type="text/css">
	.st0{fill:#FFFFFF;}
	.st1{fill:none;}
	.st2{font-family:'MyriadPro-Regular';}
	.st3{font-size:168.233px;}
</style>
<g id="celsius_x5F_path">
	<path class="st0" d="M491,889.5c-93.4,0-181.1-36.3-247.1-102.4S141.5,633.3,141.5,540s36.4-181.1,102.4-247.1
		S397.6,190.5,491,190.5s181.1,36.4,247.1,102.4S840.5,446.6,840.5,540s-36.3,181.1-102.4,247.1S584.3,889.5,491,889.5z"/>
	<path d="M491,191c47.1,0,92.8,9.2,135.8,27.4c41.6,17.6,78.9,42.7,110.9,74.8s57.2,69.4,74.8,110.9c18.2,43,27.4,88.7,27.4,135.9
		s-9.2,92.8-27.4,135.8c-17.6,41.6-42.7,78.9-74.8,110.9s-69.4,57.2-110.9,74.8c-43,18.2-88.7,27.4-135.9,27.4s-92.8-9.2-135.9-27.4
		c-41.6-17.6-78.9-42.7-110.9-74.8s-57.2-69.4-74.8-110.9c-18.2-43-27.4-88.7-27.4-135.9s9.2-92.8,27.4-135.9
		c17.6-41.6,42.7-78.9,74.8-110.9s69.4-57.2,110.9-74.8C398.2,200.2,443.9,191,491,191 M491,190c-193.3,0-350,156.7-350,350
		s156.7,350,350,350s350-156.7,350-350S684.3,190,491,190L491,190z"/>
</g>
<g id="fahrenheit_x5F_path">
	<path class="st0" d="M1422,889.5c-93.3,0-181.1-36.3-247.1-102.4S1072.5,633.3,1072.5,540s36.3-181.1,102.4-247.1
		s153.8-102.4,247.1-102.4s181.1,36.4,247.1,102.4c66,66,102.4,153.8,102.4,247.1s-36.3,181.1-102.4,247.1
		C1603.1,853.2,1515.3,889.5,1422,889.5z"/>
	<path d="M1422,191c47.1,0,92.8,9.2,135.8,27.4c41.6,17.6,78.9,42.7,110.9,74.8s57.2,69.4,74.8,110.9c18.2,43,27.4,88.7,27.4,135.9
		s-9.2,92.8-27.4,135.8c-17.6,41.6-42.7,78.9-74.8,110.9s-69.4,57.2-110.9,74.8c-43,18.2-88.7,27.4-135.8,27.4s-92.8-9.2-135.8-27.4
		c-41.6-17.6-78.9-42.7-110.9-74.8s-57.2-69.4-74.8-110.9c-18.2-43-27.4-88.7-27.4-135.9s9.2-92.8,27.4-135.9
		c17.6-41.6,42.7-78.9,74.8-110.9s69.4-57.2,110.9-74.8C1329.2,200.2,1374.9,191,1422,191 M1422,190c-193.3,0-350,156.7-350,350
		s156.7,350,350,350s350-156.7,350-350S1615.3,190,1422,190L1422,190z"/>
</g>
<g id="celsius_x5F_fill">
	<path class="st1" d="M491,889.5c-93.4,0-181.1-36.3-247.1-102.4S141.5,633.3,141.5,540s36.4-181.1,102.4-247.1
		S397.6,190.5,491,190.5s181.1,36.4,247.1,102.4S840.5,446.6,840.5,540s-36.3,181.1-102.4,247.1S584.3,889.5,491,889.5z"/>
	<path d="M491,191c47.1,0,92.8,9.2,135.8,27.4c41.6,17.6,78.9,42.7,110.9,74.8s57.2,69.4,74.8,110.9c18.2,43,27.4,88.7,27.4,135.9
		s-9.2,92.8-27.4,135.8c-17.6,41.6-42.7,78.9-74.8,110.9s-69.4,57.2-110.9,74.8c-43,18.2-88.7,27.4-135.9,27.4s-92.8-9.2-135.9-27.4
		c-41.6-17.6-78.9-42.7-110.9-74.8s-57.2-69.4-74.8-110.9c-18.2-43-27.4-88.7-27.4-135.9s9.2-92.8,27.4-135.9
		c17.6-41.6,42.7-78.9,74.8-110.9s69.4-57.2,110.9-74.8C398.2,200.2,443.9,191,491,191 M491,190c-193.3,0-350,156.7-350,350
		s156.7,350,350,350s350-156.7,350-350S684.3,190,491,190L491,190z"/>
	<text transform="matrix(1 0 0 1 289.01 589.0282)" class="st2 st3">-72</text>
	<text transform="matrix(1 0 0 1 533.8977 589.0272)" class="st2 st3">ºC</text>
	<text transform="matrix(1 0 0 1 1221.5515 589.027)" class="st2 st3">-72</text>
	<text transform="matrix(1 0 0 1 1466.4392 589.026)" class="st2 st3">ºC</text>
</g>
<g id="fahrenheit_x5F_fill">
	<path class="st0" d="M1422,889.5c-93.3,0-181.1-36.3-247.1-102.4c-66-66-102.4-153.8-102.4-247.1s36.3-181.1,102.4-247.1
		c66-66,153.8-102.4,247.1-102.4s181.1,36.4,247.1,102.4s102.4,153.8,102.4,247.1c0,93.3-36.3,181.1-102.4,247.1
		S1515.3,889.5,1422,889.5z"/>
	<path d="M1422,191c47.1,0,92.8,9.2,135.8,27.4c41.6,17.6,78.9,42.7,110.9,74.8s57.2,69.4,74.8,110.9c18.2,43,27.4,88.7,27.4,135.9
		s-9.2,92.8-27.4,135.8c-17.6,41.6-42.7,78.9-74.8,110.9s-69.4,57.2-110.9,74.8c-43,18.2-88.7,27.4-135.8,27.4s-92.8-9.2-135.8-27.4
		c-41.6-17.6-78.9-42.7-110.9-74.8s-57.2-69.4-74.8-110.9c-18.2-43-27.4-88.7-27.4-135.9s9.2-92.8,27.4-135.9
		c17.6-41.6,42.7-78.9,74.8-110.9s69.4-57.2,110.9-74.8C1329.2,200.2,1374.9,191,1422,191 M1422,190c-193.3,0-350,156.7-350,350
		s156.7,350,350,350s350-156.7,350-350S1615.3,190,1422,190L1422,190z"/>
</g>
</svg>
